<svg xmlns="http://www.w3.org/2000/svg" style="display:none">
<symbol id="icon-cloud-rain" viewBox="0 0 640 640">	<path d="M270,640c-1.6,0-3.2-0.2-4.9-0.6c-10.7-2.7-17.2-13.5-14.6-24.3l66.7-266.7c2.7-10.7,13.5-17.2,24.3-14.6
		c10.7,2.7,17.2,13.5,14.6,24.3l-66.7,266.7C287.1,634,279,640,270,640z M403.3,606.7c-1.6,0-3.2-0.2-4.9-0.6
		c-10.7-2.7-17.2-13.5-14.6-24.3l66.7-266.7c2.7-10.7,13.5-17.2,24.3-14.6c10.7,2.7,17.2,13.5,14.6,24.3l-66.7,266.7
		C420.5,600.6,412.3,606.7,403.3,606.7z M136.7,606.7c-1.6,0-3.2-0.2-4.9-0.6c-10.7-2.7-17.2-13.5-14.6-24.3l66.7-266.7
		c2.7-10.7,13.5-17.2,24.3-14.6c10.7,2.7,17.2,13.5,14.6,24.3l-66.7,266.7C153.8,600.6,145.6,606.7,136.7,606.7z M586.7,450.9
		c-4.4,0-8.9-1.5-12.6-4.4c-8.6-6.9-9.9-19.5-3-28.1C590,395,600,366.7,600,336.6c0-53.3-31.4-102.8-78-123.2
		c-6.9-3-11.5-9.7-12-17.2C505,108.6,431.6,40,343,40c-66.2,0-128.3,42-154.5,104.4c-2.7,6.4-8.4,10.9-15.2,12
		C96,168.9,40,232.8,40,308.3c0,33.1,10.2,64.9,29.6,91.7C76,409,74,421.5,65,428c-9,6.4-21.5,4.4-27.9-4.6
		C12.8,389.7,0,349.9,0,308.3c0-45,16.3-89,46-123.9c28.1-33.1,66.9-56.1,110-65.4C172,86,196.1,57.8,226.5,36.7
		C261.1,12.7,301.4,0,343,0c105.8,0,194,79,206,182c54.9,29.2,91.1,89.8,91.1,154.6c0,38.8-13.4,76.8-37.8,106.9
		C598.3,448.4,592.5,450.9,586.7,450.9z"/></symbol>
<symbol id="icon-cloud-sun" viewBox="0 0 674.8 673.3">	<path d="M521.5,673.3h-240c-99.3,0-180-77.6-180-172.9c0-39.4,14.8-77.9,41.7-108.3c25.1-28.5,59.6-48.3,98-56.6
		c14.4-28.2,35.9-52.4,62.9-70.4c31.1-20.8,67.3-31.8,104.6-31.8c94.6,0,173.5,68,185.1,156.8c49,25.7,81.2,78.3,81.2,134.5
		C674.8,606.6,606,673.3,521.5,673.3z M408.6,273.3c-58,0-112.5,35.4-135.4,88c-2.7,6.3-8.5,10.7-15.2,11.8
		c-67.5,10.5-116.4,64.1-116.4,127.4c0,73.3,62.8,132.9,140,132.9h240c62.5,0,113.3-48.7,113.3-108.7c0-44.5-27.2-85.8-67.8-102.9
		c-7-3-11.7-9.6-12.2-17.2C550.5,331,486.2,273.3,408.6,273.3z M73.7,353c-5.1,0-10.2-2-14.1-5.9c-7.8-7.8-7.8-20.5,0-28.3
		l23.6-23.6c7.8-7.8,20.5-7.8,28.3,0c7.8,7.8,7.8,20.5,0,28.3l-23.6,23.6C83.9,351,78.8,353,73.7,353z M171.5,280.4
		c-3.2,0-6.5-0.8-9.5-2.4c-4.8-2.6-9.4-5.7-13.6-9.2c-20.1-16.5-31.6-40.9-31.6-67c0-47.8,38.9-86.7,86.7-86.7
		c31.8,0,61,17.4,76.2,45.3c3.7,6.8,6.5,14.1,8.3,21.7c2.5,10.8-4.2,21.5-15,24c-10.8,2.5-21.5-4.2-24-15c-0.9-4.1-2.4-8-4.4-11.6
		c-8.2-15.1-23.9-24.4-41-24.4c-25.7,0-46.7,20.9-46.7,46.7c0,14,6.2,27.2,17.1,36.1c2.3,1.9,4.8,3.6,7.4,5
		c9.7,5.3,13.3,17.4,8,27.1C185.5,276.6,178.6,280.4,171.5,280.4z M53.3,223.3H20c-11,0-20-9-20-20s9-20,20-20h33.3c11,0,20,9,20,20
		S64.4,223.3,53.3,223.3z M309.4,117.3c-5.1,0-10.2-2-14.1-5.9c-7.8-7.8-7.8-20.5,0-28.3l23.6-23.6c7.8-7.8,20.5-7.8,28.3,0
		c7.8,7.8,7.8,20.5,0,28.3l-23.6,23.6C319.6,115.3,314.5,117.3,309.4,117.3z M97.3,117.3c-5.1,0-10.2-2-14.1-5.9L59.6,87.8
		c-7.8-7.8-7.8-20.5,0-28.3c7.8-7.8,20.5-7.8,28.3,0l23.6,23.6c7.8,7.8,7.8,20.5,0,28.3C107.5,115.3,102.4,117.3,97.3,117.3z
		 M203.3,73.3c-11,0-20-9-20-20V20c0-11,9-20,20-20s20,9,20,20v33.3C223.3,64.4,214.4,73.3,203.3,73.3z"/></symbol>
<symbol id="icon-cloud" viewBox="0 0 640 640">	<path d="M553.3,640h-100c-11,0-20-9-20-20s9-20,20-20h100c11,0,20,9,20,20S564.4,640,553.3,640z M320,640H86.7c-11,0-20-9-20-20
		s9-20,20-20H320c11,0,20,9,20,20S331,640,320,640z M620,540H253.3c-11,0-20-9-20-20s9-20,20-20H620c11,0,20,9,20,20
		S631,540,620,540z M153.3,540H20c-11,0-20-9-20-20s9-20,20-20h133.3c11,0,20,9,20,20S164.4,540,153.3,540z M453.3,440h-240
		c-99.3,0-180-77.6-180-172.9c0-39.4,14.8-77.9,41.7-108.3c25.1-28.5,59.6-48.3,98-56.6c14.4-28.2,35.9-52.4,62.9-70.4
		C267,11,303.1,0,340.4,0C435,0,514,68,525.5,156.8c49,25.7,81.2,78.3,81.2,134.5C606.7,373.3,537.9,440,453.3,440z M340.4,40
		c-58,0-112.5,35.4-135.4,88c-2.7,6.3-8.5,10.7-15.2,11.8c-67.5,10.5-116.4,64.1-116.4,127.4c0,73.3,62.8,132.9,140,132.9h240
		c62.5,0,113.3-48.7,113.3-108.7c0-44.5-27.2-85.8-67.8-102.9c-7-3-11.7-9.6-12.2-17.2C482.3,97.6,418.1,40,340.4,40z"/></symbol>
</svg>
